<?xml version="1.0" encoding="UTF-8" standalone="no"?>
<!DOCTYPE svg PUBLIC "-//W3C//DTD SVG 1.1//EN"
 "http://www.w3.org/Graphics/SVG/1.1/DTD/svg11.dtd">
<!-- Generated by graphviz version 2.40.1 (20161225.0304)
 -->
<!-- Title: state transitions Pages: 1 -->
<svg width="411pt" height="270pt"
 viewBox="0.00 0.00 411.00 270.00" xmlns="http://www.w3.org/2000/svg" xmlns:xlink="http://www.w3.org/1999/xlink">
<g id="graph0" class="graph" transform="scale(1 1) rotate(0) translate(4 266)">
<title>state transitions</title>
<polygon fill="#ffffff" stroke="transparent" points="-4,4 -4,-266 407,-266 407,4 -4,4"/>
<g id="clust1" class="cluster state regular">
<title>cluster_next_state</title>
<path fill="none" stroke="#000000" stroke-width="2" d="M20,-8C20,-8 383,-8 383,-8 389,-8 395,-14 395,-20 395,-20 395,-242 395,-242 395,-248 389,-254 383,-254 383,-254 20,-254 20,-254 14,-254 8,-248 8,-242 8,-242 8,-20 8,-20 8,-14 14,-8 20,-8"/>
<text text-anchor="start" x="174.3208" y="-235.2" font-family="Helvetica,sans-Serif" font-size="12.00" fill="#000000">next_state</text>
</g>
<!-- next_state -->
<!-- idle -->
<g id="node2" class="node state regular">
<title>idle</title>
<polygon fill="#ffffff" fill-opacity="0.003922" stroke="transparent" stroke-width="2" points="132,-216 76,-216 76,-180 132,-180 132,-216"/>
<text text-anchor="start" x="94.6664" y="-194.2" font-family="Helvetica,sans-Serif" font-size="12.00" fill="#000000">idle</text>
<path fill="none" stroke="#000000" stroke-width="2" d="M88.3333,-181C88.3333,-181 119.6667,-181 119.6667,-181 125.3333,-181 131,-186.6667 131,-192.3333 131,-192.3333 131,-203.6667 131,-203.6667 131,-209.3333 125.3333,-215 119.6667,-215 119.6667,-215 88.3333,-215 88.3333,-215 82.6667,-215 77,-209.3333 77,-203.6667 77,-203.6667 77,-192.3333 77,-192.3333 77,-186.6667 82.6667,-181 88.3333,-181"/>
</g>
<!-- idle&#45;&gt;idle -->
<g id="edge2" class="edge transition">
<title>idle&#45;&gt;idle</title>
<path fill="none" stroke="#000000" d="M132.0183,-202.8247C143.888,-203.1883 154,-201.5801 154,-198 154,-195.5387 149.2205,-194.0094 142.3762,-193.4121"/>
<polygon fill="#000000" stroke="#000000" points="142.0957,-189.9049 132.0183,-193.1753 141.9356,-196.903 142.0957,-189.9049"/>
<text text-anchor="start" x="154" y="-195" font-family="Helvetica,sans-Serif" font-size="10.00" fill="#000000">not (start = &#39;1&#39;) &#160;&#160;</text>
</g>
<!-- hash_seed -->
<g id="node3" class="node state regular">
<title>hash_seed</title>
<polygon fill="#ffffff" fill-opacity="0.003922" stroke="transparent" stroke-width="2" points="96,-134 16,-134 16,-98 96,-98 96,-134"/>
<text text-anchor="start" x="26.6522" y="-112.2" font-family="Helvetica,sans-Serif" font-size="12.00" fill="#000000">hash_seed</text>
<path fill="none" stroke="#000000" stroke-width="2" d="M28.3333,-99C28.3333,-99 83.6667,-99 83.6667,-99 89.3333,-99 95,-104.6667 95,-110.3333 95,-110.3333 95,-121.6667 95,-121.6667 95,-127.3333 89.3333,-133 83.6667,-133 83.6667,-133 28.3333,-133 28.3333,-133 22.6667,-133 17,-127.3333 17,-121.6667 17,-121.6667 17,-110.3333 17,-110.3333 17,-104.6667 22.6667,-99 28.3333,-99"/>
</g>
<!-- idle&#45;&gt;hash_seed -->
<g id="edge1" class="edge transition">
<title>idle&#45;&gt;hash_seed</title>
<path fill="none" stroke="#000000" d="M93.3472,-179.8015C87.0086,-168.973 78.8486,-155.033 71.7736,-142.9466"/>
<polygon fill="#000000" stroke="#000000" points="74.6954,-141.0096 66.623,-134.1476 68.6543,-144.5459 74.6954,-141.0096"/>
<text text-anchor="start" x="83" y="-154" font-family="Helvetica,sans-Serif" font-size="10.00" fill="#000000">start = &#39;1&#39; &#160;&#160;</text>
</g>
<!-- hash_seed&#45;&gt;hash_seed -->
<g id="edge4" class="edge transition">
<title>hash_seed&#45;&gt;hash_seed</title>
<path fill="none" stroke="#000000" d="M96.2514,-120.8676C108.4582,-120.7456 118,-119.123 118,-116 118,-113.8529 113.49,-112.415 106.7046,-111.6864"/>
<polygon fill="#000000" stroke="#000000" points="106.4226,-108.1666 96.2514,-111.1324 106.0521,-115.1568 106.4226,-108.1666"/>
<text text-anchor="start" x="118" y="-113" font-family="Helvetica,sans-Serif" font-size="10.00" fill="#000000">not (local_sha_done = &#39;1&#39;) &#160;&#160;</text>
</g>
<!-- encrypt_seed -->
<g id="node4" class="node state regular">
<title>encrypt_seed</title>
<polygon fill="#ffffff" fill-opacity="0.003922" stroke="transparent" stroke-width="2" points="175,-52 81,-52 81,-16 175,-16 175,-52"/>
<text text-anchor="start" x="91.9874" y="-30.2" font-family="Helvetica,sans-Serif" font-size="12.00" fill="#000000">encrypt_seed</text>
<path fill="none" stroke="#000000" stroke-width="2" d="M93.3333,-17C93.3333,-17 162.6667,-17 162.6667,-17 168.3333,-17 174,-22.6667 174,-28.3333 174,-28.3333 174,-39.6667 174,-39.6667 174,-45.3333 168.3333,-51 162.6667,-51 162.6667,-51 93.3333,-51 93.3333,-51 87.6667,-51 82,-45.3333 82,-39.6667 82,-39.6667 82,-28.3333 82,-28.3333 82,-22.6667 87.6667,-17 93.3333,-17"/>
</g>
<!-- hash_seed&#45;&gt;encrypt_seed -->
<g id="edge3" class="edge transition">
<title>hash_seed&#45;&gt;encrypt_seed</title>
<path fill="none" stroke="#000000" d="M71.9791,-97.8015C81.7668,-86.6545 94.4495,-72.2103 105.2716,-59.8851"/>
<polygon fill="#000000" stroke="#000000" points="108.0975,-61.9713 112.0655,-52.1476 102.8374,-57.3527 108.0975,-61.9713"/>
<text text-anchor="start" x="96" y="-72" font-family="Helvetica,sans-Serif" font-size="10.00" fill="#000000">local_sha_done = &#39;1&#39; &#160;&#160;</text>
</g>
<!-- encrypt_seed&#45;&gt;idle -->
<g id="edge5" class="edge transition">
<title>encrypt_seed&#45;&gt;idle</title>
<path fill="none" stroke="#000000" d="M175.1535,-37.5582C220.1085,-42.2884 281,-52.794 281,-75 281,-157 281,-157 281,-157 281,-185.2556 194.3114,-194.0432 142.2693,-196.7729"/>
<polygon fill="#000000" stroke="#000000" points="141.8701,-193.2877 132.0462,-197.2552 142.2,-200.2799 141.8701,-193.2877"/>
<text text-anchor="start" x="281" y="-113" font-family="Helvetica,sans-Serif" font-size="10.00" fill="#000000">local_fcore_done = &#39;1&#39; &#160;&#160;</text>
</g>
<!-- encrypt_seed&#45;&gt;encrypt_seed -->
<g id="edge6" class="edge transition">
<title>encrypt_seed&#45;&gt;encrypt_seed</title>
<path fill="none" stroke="#000000" d="M175.0851,-38.8322C187.5552,-38.556 197,-36.9453 197,-34 197,-31.9291 192.3306,-30.518 185.2234,-29.7666"/>
<polygon fill="#000000" stroke="#000000" points="185.2741,-26.2636 175.0851,-29.1678 184.8613,-33.2514 185.2741,-26.2636"/>
<text text-anchor="start" x="197" y="-31" font-family="Helvetica,sans-Serif" font-size="10.00" fill="#000000">not (local_fcore_done = &#39;1&#39;) &#160;&#160;</text>
</g>
</g>
</svg>
