<?xml version="1.0" encoding="UTF-8" standalone="no"?>
<!DOCTYPE svg PUBLIC "-//W3C//DTD SVG 1.1//EN"
 "http://www.w3.org/Graphics/SVG/1.1/DTD/svg11.dtd">
<!-- Generated by graphviz version 2.40.1 (20161225.0304)
 -->
<!-- Title: state transitions Pages: 1 -->
<svg width="512pt" height="364pt"
 viewBox="0.00 0.00 511.65 364.00" xmlns="http://www.w3.org/2000/svg" xmlns:xlink="http://www.w3.org/1999/xlink">
<g id="graph0" class="graph" transform="scale(1 1) rotate(0) translate(4 360)">
<title>state transitions</title>
<polygon fill="#ffffff" stroke="transparent" points="-4,4 -4,-360 507.651,-360 507.651,4 -4,4"/>
<g id="clust1" class="cluster state regular">
<title>cluster_next_state</title>
<path fill="none" stroke="#000000" stroke-width="2" d="M20,-8C20,-8 407,-8 407,-8 413,-8 419,-14 419,-20 419,-20 419,-336 419,-336 419,-342 413,-348 407,-348 407,-348 20,-348 20,-348 14,-348 8,-342 8,-336 8,-336 8,-20 8,-20 8,-14 14,-8 20,-8"/>
<text text-anchor="start" x="186.3208" y="-329.2" font-family="Helvetica,sans-Serif" font-size="12.00" fill="#000000">next_state</text>
</g>
<!-- next_state -->
<!-- idle -->
<g id="node2" class="node state regular">
<title>idle</title>
<polygon fill="#ffffff" fill-opacity="0.003922" stroke="transparent" stroke-width="2" points="337,-310 281,-310 281,-274 337,-274 337,-310"/>
<text text-anchor="start" x="299.6664" y="-288.2" font-family="Helvetica,sans-Serif" font-size="12.00" fill="#000000">idle</text>
<path fill="none" stroke="#000000" stroke-width="2" d="M293.3333,-275C293.3333,-275 324.6667,-275 324.6667,-275 330.3333,-275 336,-280.6667 336,-286.3333 336,-286.3333 336,-297.6667 336,-297.6667 336,-303.3333 330.3333,-309 324.6667,-309 324.6667,-309 293.3333,-309 293.3333,-309 287.6667,-309 282,-303.3333 282,-297.6667 282,-297.6667 282,-286.3333 282,-286.3333 282,-280.6667 287.6667,-275 293.3333,-275"/>
</g>
<!-- seed -->
<g id="node3" class="node state regular">
<title>seed</title>
<polygon fill="#ffffff" fill-opacity="0.003922" stroke="transparent" stroke-width="2" points="72,-216 16,-216 16,-180 72,-180 72,-216"/>
<text text-anchor="start" x="30.9938" y="-194.2" font-family="Helvetica,sans-Serif" font-size="12.00" fill="#000000">seed</text>
<path fill="none" stroke="#000000" stroke-width="2" d="M28.3333,-181C28.3333,-181 59.6667,-181 59.6667,-181 65.3333,-181 71,-186.6667 71,-192.3333 71,-192.3333 71,-203.6667 71,-203.6667 71,-209.3333 65.3333,-215 59.6667,-215 59.6667,-215 28.3333,-215 28.3333,-215 22.6667,-215 17,-209.3333 17,-203.6667 17,-203.6667 17,-192.3333 17,-192.3333 17,-186.6667 22.6667,-181 28.3333,-181"/>
</g>
<!-- idle&#45;&gt;seed -->
<g id="edge1" class="edge transition">
<title>idle&#45;&gt;seed</title>
<path fill="none" stroke="#000000" d="M280.6745,-289.9421C217.922,-285.1235 71.4434,-272.3467 55.28,-257 47.0272,-249.1642 43.7606,-237.2881 42.7288,-226.24"/>
<polygon fill="#000000" stroke="#000000" points="46.2191,-225.9171 42.3346,-216.0601 39.2243,-226.1881 46.2191,-225.9171"/>
<text text-anchor="start" x="55" y="-248" font-family="Helvetica,sans-Serif" font-size="10.00" fill="#000000">counter_o_signal = 0 or counter_o_signal = X&quot;FFFFF&quot; &#160;&#160;</text>
<text text-anchor="start" x="55" y="-236" font-family="Helvetica,sans-Serif" font-size="10.00" fill="#000000">start = &#39;1&#39; &#160;&#160;</text>
</g>
<!-- encrypt -->
<g id="node4" class="node state regular">
<title>encrypt</title>
<polygon fill="#ffffff" fill-opacity="0.003922" stroke="transparent" stroke-width="2" points="120.5,-134 59.5,-134 59.5,-98 120.5,-98 120.5,-134"/>
<text text-anchor="start" x="70.829" y="-112.2" font-family="Helvetica,sans-Serif" font-size="12.00" fill="#000000">encrypt</text>
<path fill="none" stroke="#000000" stroke-width="2" d="M71.8333,-99C71.8333,-99 108.1667,-99 108.1667,-99 113.8333,-99 119.5,-104.6667 119.5,-110.3333 119.5,-110.3333 119.5,-121.6667 119.5,-121.6667 119.5,-127.3333 113.8333,-133 108.1667,-133 108.1667,-133 71.8333,-133 71.8333,-133 66.1667,-133 60.5,-127.3333 60.5,-121.6667 60.5,-121.6667 60.5,-110.3333 60.5,-110.3333 60.5,-104.6667 66.1667,-99 71.8333,-99"/>
</g>
<!-- idle&#45;&gt;encrypt -->
<g id="edge2" class="edge transition">
<title>idle&#45;&gt;encrypt</title>
<path fill="none" stroke="#000000" d="M312.969,-273.7815C314.6697,-260.6524 314.3188,-243.4697 304,-233 277.1858,-205.7937 163.7646,-238.5699 132.946,-216 109.9447,-199.1551 99.1381,-167.4263 94.1417,-144.2114"/>
<polygon fill="#000000" stroke="#000000" points="97.5486,-143.3925 92.2319,-134.2283 90.6732,-144.7078 97.5486,-143.3925"/>
<text text-anchor="start" x="132" y="-201" font-family="Helvetica,sans-Serif" font-size="10.00" fill="#000000">start = &#39;1&#39; &#160;&#160;</text>
<text text-anchor="start" x="132" y="-189" font-family="Helvetica,sans-Serif" font-size="10.00" fill="#000000">not (counter_o_signal = 0 or counter_o_signal = X&quot;FFFFF&quot;) &#160;&#160;</text>
</g>
<!-- seed&#45;&gt;encrypt -->
<g id="edge3" class="edge transition">
<title>seed&#45;&gt;encrypt</title>
<path fill="none" stroke="#000000" d="M54.2089,-179.8015C60.2835,-168.973 68.1035,-155.033 74.8836,-142.9466"/>
<polygon fill="#000000" stroke="#000000" points="77.9796,-144.5814 79.8196,-134.1476 71.8746,-141.1566 77.9796,-144.5814"/>
<text text-anchor="middle" x="71.3895" y="-154" font-family="Helvetica,sans-Serif" font-size="10.00" fill="#000000"> </text>
</g>
<!-- encrypt&#45;&gt;encrypt -->
<g id="edge5" class="edge transition">
<title>encrypt&#45;&gt;encrypt</title>
<path fill="none" stroke="#000000" d="M120.7377,-120.856C132.6221,-121.0718 142.5,-119.4531 142.5,-116 142.5,-113.626 137.8311,-112.119 131.0512,-111.4792"/>
<polygon fill="#000000" stroke="#000000" points="130.8461,-107.9707 120.7377,-111.144 130.6187,-114.967 130.8461,-107.9707"/>
<text text-anchor="start" x="142.5" y="-113" font-family="Helvetica,sans-Serif" font-size="10.00" fill="#000000">not (falling_edge(encrypt_busy_o)) &#160;&#160;</text>
</g>
<!-- increment -->
<g id="node5" class="node state regular">
<title>increment</title>
<polygon fill="#ffffff" fill-opacity="0.003922" stroke="transparent" stroke-width="2" points="258,-52 184,-52 184,-16 258,-16 258,-52"/>
<text text-anchor="start" x="194.6648" y="-30.2" font-family="Helvetica,sans-Serif" font-size="12.00" fill="#000000">increment</text>
<path fill="none" stroke="#000000" stroke-width="2" d="M196.3333,-17C196.3333,-17 245.6667,-17 245.6667,-17 251.3333,-17 257,-22.6667 257,-28.3333 257,-28.3333 257,-39.6667 257,-39.6667 257,-45.3333 251.3333,-51 245.6667,-51 245.6667,-51 196.3333,-51 196.3333,-51 190.6667,-51 185,-45.3333 185,-39.6667 185,-39.6667 185,-28.3333 185,-28.3333 185,-22.6667 190.6667,-17 196.3333,-17"/>
</g>
<!-- encrypt&#45;&gt;increment -->
<g id="edge4" class="edge transition">
<title>encrypt&#45;&gt;increment</title>
<path fill="none" stroke="#000000" d="M63.5559,-97.9177C53.8591,-89.0849 46.9143,-78.3673 54.517,-69 69.2927,-50.7949 129.7782,-41.7087 173.5915,-37.4329"/>
<polygon fill="#000000" stroke="#000000" points="174.1384,-40.8975 183.7752,-36.4951 173.4964,-33.927 174.1384,-40.8975"/>
<text text-anchor="start" x="54" y="-72" font-family="Helvetica,sans-Serif" font-size="10.00" fill="#000000">falling_edge(encrypt_busy_o) &#160;&#160;</text>
</g>
<!-- increment&#45;&gt;idle -->
<g id="edge6" class="edge transition">
<title>increment&#45;&gt;idle</title>
<path fill="none" stroke="#000000" d="M258.1015,-38.2463C282.565,-42.6109 314.1822,-51.3969 337,-69 382.8075,-104.3388 389.2997,-124.3164 405,-180 409.342,-195.3996 411.9678,-201.5969 405,-216 392.7689,-241.283 367.5912,-260.7126 346.0889,-273.5961"/>
<polygon fill="#000000" stroke="#000000" points="344.0869,-270.7091 337.147,-278.7148 347.5645,-276.7842 344.0869,-270.7091"/>
<text text-anchor="start" x="400" y="-154" font-family="Helvetica,sans-Serif" font-size="10.00" fill="#000000">encrypt_schedule = 3 &#160;&#160;</text>
</g>
<!-- increment&#45;&gt;encrypt -->
<g id="edge7" class="edge transition">
<title>increment&#45;&gt;encrypt</title>
<path fill="none" stroke="#000000" d="M214.6847,-52.2394C210.4742,-61.9851 204.0346,-73.4881 195,-81 176.8427,-96.097 151.9217,-104.765 130.9149,-109.6975"/>
<polygon fill="#000000" stroke="#000000" points="130.008,-106.3123 120.9637,-111.8306 131.4752,-113.1568 130.008,-106.3123"/>
<text text-anchor="start" x="205" y="-72" font-family="Helvetica,sans-Serif" font-size="10.00" fill="#000000">not (encrypt_schedule = 3) &#160;&#160;</text>
</g>
</g>
</svg>
